<svg width="16" height="16" viewBox="0 0 16 16" fill="none" xmlns="http://www.w3.org/2000/svg">
<path d="M8.19611 4.65559L11.3444 7.80389L6.84684 12.3015C6.59845 12.5499 6.19572 12.5499 5.94733 12.3015L3.69854 10.0527C3.45015 9.80428 3.45015 9.40155 3.69854 9.15316L8.19611 4.65559Z" fill="black"/>
<path d="M13.3739 2.02441L9.95177 3.14319C9.71418 3.22087 9.49824 3.35346 9.32149 3.53021L7.97123 4.88047C7.72284 5.12886 7.72284 5.53159 7.97123 5.77998L10.22 8.02877C10.4684 8.27716 10.8711 8.27716 11.1195 8.02877L12.4698 6.67851C12.6465 6.50176 12.7791 6.28582 12.8568 6.04823L13.9756 2.62606C14.097 2.25483 13.7452 1.90304 13.3739 2.02441Z" fill="black"/>
<path d="M8.07 5.77998H3.47366L1 8.25365H5.6L8.07 5.77998Z" fill="black"/>
<path d="M10.22 7.93V12.5263L7.74635 15V10.4L10.22 7.93Z" fill="black"/>
</svg>
